<svg width="55" height="42" viewBox="0 0 55 42" fill="none" xmlns="http://www.w3.org/2000/svg">
<path d="M11.1702 2.36C11.3568 2.26667 11.6302 2.22667 11.9902 2.24C12.1502 2.25333 12.2635 2.26667 12.3302 2.28C12.3968 2.28 12.4435 2.3 12.4702 2.34C12.4968 2.35333 12.5102 2.37333 12.5102 2.4C12.5235 2.42667 12.5368 2.46 12.5502 2.5C12.6035 2.63333 12.6102 2.74667 12.5702 2.84C12.5435 2.93333 12.4702 3.00667 12.3502 3.06C12.2702 3.1 12.1435 3.14667 11.9702 3.2C11.8102 3.25333 11.6368 3.3 11.4502 3.34C11.2635 3.38 11.0702 3.42 10.8702 3.46C10.7635 3.47333 10.6635 3.48667 10.5702 3.5C10.4902 3.51333 10.4168 3.52667 10.3502 3.54C9.87016 3.56667 9.58349 3.6 9.49016 3.64C9.46349 3.65333 9.43682 3.66667 9.41016 3.68C9.39682 3.68 9.37016 3.68667 9.33016 3.7C9.29016 3.7 9.25016 3.70667 9.21016 3.72C9.17016 3.72 9.12349 3.72 9.07016 3.72C9.01682 3.72 8.95682 3.72667 8.89016 3.74C8.83682 3.74 8.77682 3.74 8.71016 3.74C8.25682 3.74 7.97016 3.77333 7.85016 3.84C7.74349 3.88 7.67682 3.94667 7.65016 4.04C7.65016 4.08 7.64349 4.17333 7.63016 4.32C7.63016 4.45333 7.63016 4.63333 7.63016 4.86C7.63016 5.16667 7.63682 5.42667 7.65016 5.64C7.67682 5.84 7.71016 6.00667 7.75016 6.14C7.77682 6.19333 7.79682 6.27333 7.81016 6.38C7.82349 6.47333 7.83682 6.59333 7.85016 6.74C7.86349 6.87333 7.87016 7.02667 7.87016 7.2C7.87016 7.37333 7.87016 7.56667 7.87016 7.78C7.87016 8.06 7.87016 8.3 7.87016 8.5C7.87016 8.68667 7.87682 8.84 7.89016 8.96C7.90349 9.06667 7.91682 9.13333 7.93016 9.16C7.95682 9.2 7.98349 9.35333 8.01016 9.62C8.05016 9.87333 8.09016 10.24 8.13016 10.72C8.22349 12.1467 8.31682 12.9333 8.41016 13.08C8.43682 13.12 8.42349 13.2333 8.37016 13.42C8.31682 13.6067 8.26349 13.7467 8.21016 13.84C8.15682 13.92 8.01682 13.96 7.79016 13.96C7.57682 13.96 7.44349 13.8867 7.39016 13.74C7.33682 13.5933 7.30349 13.24 7.29016 12.68C7.29016 12.0667 7.26349 11.5933 7.21016 11.26C7.06349 10.3667 6.95682 9.1 6.89016 7.46C6.83682 6.23333 6.77682 5.56 6.71016 5.44C6.64349 5.32 6.61016 5.06667 6.61016 4.68C6.61016 4.29333 6.57682 4.06667 6.51016 4C6.43016 3.93333 5.48349 3.91333 3.67016 3.94C1.87016 3.99333 0.92349 3.98 0.830156 3.9C0.68349 3.78 0.66349 3.62667 0.770156 3.44C0.890156 3.25333 1.07016 3.16 1.31016 3.16C1.43016 3.16 1.57016 3.11333 1.73016 3.02C1.85016 2.96667 1.93682 2.94 1.99016 2.94C2.00349 2.94 2.01682 2.94667 2.03016 2.96C2.05682 2.96 2.07682 2.96667 2.09016 2.98C2.11682 2.99333 2.14349 3.00667 2.17016 3.02C2.21016 3.07333 2.26349 3.10667 2.33016 3.12C2.39682 3.13333 2.47016 3.13333 2.55016 3.12C2.60349 3.09333 2.65682 3.08 2.71016 3.08C2.77682 3.06667 2.85016 3.05333 2.93016 3.04C3.01016 3.02667 3.10349 3.01333 3.21016 3C3.29016 3 3.81016 2.97333 4.77016 2.92C5.94349 2.82667 6.91016 2.76667 7.67016 2.74C8.84349 2.68667 9.49682 2.63333 9.63016 2.58C9.65682 2.56667 9.68349 2.56 9.71016 2.56C9.73682 2.54667 9.76349 2.53333 9.79016 2.52C9.83016 2.50667 9.87016 2.5 9.91016 2.5C9.95016 2.5 9.99016 2.5 10.0302 2.5C10.0835 2.48667 10.1368 2.48 10.1902 2.48C10.2435 2.46667 10.3035 2.46 10.3702 2.46C10.5302 2.46 10.6768 2.45333 10.8102 2.44C10.9435 2.41333 11.0635 2.38667 11.1702 2.36ZM13.6906 2.06C13.744 1.83333 13.7306 1.63333 13.6506 1.46C13.6106 1.36667 13.5773 1.29333 13.5506 1.24C13.5373 1.17333 13.5306 1.12 13.5306 1.08C13.544 1.04 13.564 1.00667 13.5906 0.98C13.6173 0.94 13.6573 0.906666 13.7106 0.88C13.844 0.813333 13.9306 0.786667 13.9706 0.8C13.984 0.8 13.9973 0.806666 14.0106 0.819999C14.0373 0.833333 14.0573 0.853333 14.0706 0.88C14.0973 0.893333 14.1306 0.919999 14.1706 0.959999C14.2373 1.02667 14.2973 1.10667 14.3506 1.2C14.404 1.28 14.4506 1.36667 14.4906 1.46C14.584 1.66 14.6506 1.86667 14.6906 2.08C14.744 2.28 14.7573 2.44667 14.7306 2.58C14.6906 2.78 14.6706 3.04667 14.6706 3.38C14.6706 3.5 14.6706 3.62 14.6706 3.74C14.684 3.86 14.6906 3.98 14.6906 4.1C14.6906 4.22 14.6906 4.34 14.6906 4.46C14.6906 4.58 14.6906 4.7 14.6906 4.82C14.6906 4.94 14.6906 5.06667 14.6906 5.2C14.6906 5.32 14.684 5.44 14.6706 5.56C14.6706 5.68 14.6706 5.80667 14.6706 5.94C14.6706 6.06 14.664 6.18667 14.6506 6.32C14.6506 6.44 14.6506 6.56 14.6506 6.68C14.5973 7.82667 14.5373 8.43333 14.4706 8.5C14.4306 8.52667 14.3973 8.56667 14.3706 8.62C14.3573 8.67333 14.3506 8.73333 14.3506 8.8C14.3506 8.96 14.3906 9.04 14.4706 9.04C14.5373 9.04 14.6173 8.96667 14.7106 8.82C14.9506 8.47333 15.3173 8.1 15.8106 7.7C16.3173 7.3 16.8173 6.97333 17.3106 6.72C17.6706 6.53333 18.1773 6.51333 18.8306 6.66C19.484 6.80667 19.9906 7.05333 20.3506 7.4C20.4173 7.45333 20.4706 7.50667 20.5106 7.56C20.564 7.6 20.604 7.64 20.6306 7.68C20.6706 7.70667 20.704 7.74 20.7306 7.78C20.7706 7.82 20.804 7.86667 20.8306 7.92C20.8573 7.96 20.884 8.00667 20.9106 8.06C20.924 8.1 20.9373 8.14 20.9506 8.18C20.964 8.22 20.9706 8.26667 20.9706 8.32C20.984 8.36 20.9973 8.41333 21.0106 8.48L21.1706 9.28C21.2373 9.56 21.2773 10.2267 21.2906 11.28V12.8L20.8906 13.2C20.5973 13.4933 20.3173 13.7067 20.0506 13.84C19.9173 13.9067 19.8106 13.94 19.7306 13.94C19.6506 13.9533 19.5906 13.9333 19.5506 13.88C19.5373 13.8533 19.5306 13.8133 19.5306 13.76C19.5306 13.72 19.5373 13.6733 19.5506 13.62C19.5773 13.5667 19.604 13.5 19.6306 13.42C19.7373 13.22 19.864 13.0333 20.0106 12.86L20.3306 12.52V11.28C20.3306 10.44 20.304 9.96667 20.2506 9.86C20.1706 9.55333 20.1173 9.27333 20.0906 9.02C20.0373 8.55333 19.9773 8.28 19.9106 8.2C19.8306 8.09333 19.7106 7.99333 19.5506 7.9C19.404 7.79333 19.2306 7.69333 19.0306 7.6C18.604 7.42667 18.2773 7.35333 18.0506 7.38C17.5173 7.47333 16.8973 7.84 16.1906 8.48C15.484 9.10667 14.9506 9.76667 14.5906 10.46C14.484 10.6733 14.404 11.06 14.3506 11.62C14.324 12.0067 14.2973 12.3267 14.2706 12.58C14.244 12.82 14.224 12.9867 14.2106 13.08C14.1706 13.28 14.104 13.4267 14.0106 13.52C13.904 13.64 13.804 13.6933 13.7106 13.68C13.6306 13.68 13.5306 13.62 13.4106 13.5L13.1906 13.28L13.2306 11.88C13.2706 10.2267 13.3573 9.30667 13.4906 9.12C13.5573 9.01333 13.6106 7.98 13.6506 6.02C13.704 4.06 13.704 2.94667 13.6506 2.68C13.6106 2.48 13.624 2.27333 13.6906 2.06ZM21.962 10.3C22.002 10.14 22.0287 10.0067 22.042 9.9C22.0554 9.79333 22.062 9.70667 22.062 9.64C22.0487 9.46667 22.122 9.16667 22.282 8.74C22.442 8.3 22.5954 7.96667 22.742 7.74C22.7954 7.64667 22.842 7.56667 22.882 7.5C22.922 7.42 22.9554 7.35333 22.982 7.3C23.0087 7.24667 23.0287 7.20667 23.042 7.18C23.0554 7.12667 23.0754 7.08667 23.102 7.06C23.1287 7.03333 23.1554 7.02 23.182 7.02C23.222 7.02 23.302 6.9 23.422 6.66C23.4487 6.62 23.4754 6.58 23.502 6.54C23.542 6.48667 23.582 6.43333 23.622 6.38C23.662 6.32667 23.7087 6.27333 23.762 6.22C23.8154 6.15333 23.8754 6.08667 23.942 6.02C24.0087 5.95333 24.0754 5.88667 24.142 5.82C24.5287 5.46 24.782 5.28 24.902 5.28C24.9554 5.28 25.122 5.22 25.402 5.1C25.6954 4.96667 26.0354 4.9 26.422 4.9C26.8087 4.9 27.062 4.93333 27.182 5C27.302 5.05333 27.5287 5.24 27.862 5.56C28.0354 5.72 28.162 5.84667 28.242 5.94C28.322 6.03333 28.362 6.1 28.362 6.14C28.362 6.16667 28.382 6.22667 28.422 6.32C28.4754 6.41333 28.5354 6.53333 28.602 6.68C28.682 6.85333 28.742 6.99333 28.782 7.1C28.822 7.20667 28.842 7.28667 28.842 7.34C28.842 7.44667 29.0087 7.83333 29.342 8.5C29.902 9.59333 30.2887 10.4533 30.502 11.08C30.542 11.16 30.5887 11.28 30.642 11.44C30.6954 11.5867 30.7487 11.7333 30.802 11.88C30.8554 12.0267 30.8954 12.14 30.922 12.22C31.3087 13.2067 31.4687 13.7533 31.402 13.86C31.3887 13.8733 31.3687 13.8867 31.342 13.9C31.3287 13.9133 31.3087 13.92 31.282 13.92C31.2554 13.9333 31.222 13.94 31.182 13.94C31.1554 13.9533 31.122 13.96 31.082 13.96C31.042 13.96 30.9954 13.9467 30.942 13.92C30.902 13.9067 30.862 13.8867 30.822 13.86C30.782 13.8333 30.742 13.8 30.702 13.76C30.5687 13.6267 30.482 13.48 30.442 13.32C30.4154 13.16 30.3287 12.9533 30.182 12.7C30.0354 12.4333 29.9087 12.2333 29.802 12.1C29.6687 11.9533 29.4754 11.4933 29.222 10.72C29.1954 10.64 29.1687 10.5733 29.142 10.52C29.1287 10.4533 29.1087 10.3933 29.082 10.34C29.0687 10.2867 29.0554 10.2467 29.042 10.22C29.0287 10.18 29.0154 10.1467 29.002 10.12C28.9887 10.0933 28.9754 10.0733 28.962 10.06C28.9354 10.0333 28.902 9.96667 28.862 9.86C28.822 9.75333 28.762 9.6 28.682 9.4C28.6287 9.2 28.5754 9.05333 28.522 8.96C28.4687 8.86667 28.422 8.82 28.382 8.82C28.2887 8.82 28.2354 8.89333 28.222 9.04C28.1954 9.2 28.1487 9.33333 28.082 9.44C28.002 9.54667 27.962 9.69333 27.962 9.88C27.962 9.90667 27.9554 9.94 27.942 9.98C27.942 10.0067 27.9354 10.0467 27.922 10.1C27.9087 10.14 27.8954 10.1867 27.882 10.24C27.8687 10.2933 27.8487 10.3533 27.822 10.42C27.7954 10.4733 27.762 10.54 27.722 10.62C27.6954 10.6867 27.6687 10.76 27.642 10.84C27.562 11 27.4887 11.1467 27.422 11.28C27.3554 11.4133 27.2887 11.5333 27.222 11.64C27.1687 11.7333 27.1154 11.82 27.062 11.9C26.662 12.4067 26.2754 12.8067 25.902 13.1C25.702 13.2333 25.5087 13.34 25.322 13.42C25.1487 13.5133 24.9754 13.5667 24.802 13.58C24.7354 13.5933 24.6687 13.6067 24.602 13.62C24.5487 13.6333 24.502 13.64 24.462 13.64C23.942 13.7733 23.442 13.68 22.962 13.36C22.7087 13.1867 22.4954 12.9733 22.322 12.72C22.162 12.4533 22.0487 12.1467 21.982 11.8C21.9154 11.4267 21.882 11.1533 21.882 10.98C21.882 10.7933 21.9087 10.5667 21.962 10.3ZM26.182 11.78C26.462 11.58 26.7354 11.0867 27.002 10.3C27.2687 9.5 27.4554 8.64667 27.562 7.74C27.5754 7.62 27.582 7.51333 27.582 7.42C27.582 7.32667 27.5887 7.24667 27.602 7.18C27.602 7.02 27.5954 6.88667 27.582 6.78C27.582 6.72667 27.5687 6.68 27.542 6.64C27.5287 6.58667 27.5154 6.54 27.502 6.5C27.4487 6.42 27.382 6.35333 27.302 6.3C27.2354 6.23333 27.142 6.18 27.022 6.14C26.382 5.86 25.862 5.86 25.462 6.14C25.3687 6.20667 25.282 6.26 25.202 6.3C25.122 6.32667 25.0554 6.34 25.002 6.34C24.9754 6.34 24.9487 6.34667 24.922 6.36C24.9087 6.36 24.882 6.36667 24.842 6.38C24.8154 6.39333 24.7887 6.41333 24.762 6.44C24.7354 6.45333 24.702 6.47333 24.662 6.5C24.6354 6.52667 24.602 6.56 24.562 6.6C24.482 6.68 24.3954 6.78 24.302 6.9C24.222 7.00667 24.142 7.12667 24.062 7.26C23.8754 7.58 23.682 7.86667 23.482 8.12C23.4287 8.2 23.3754 8.28 23.322 8.36C23.282 8.44 23.2487 8.51333 23.222 8.58C23.1954 8.64667 23.1754 8.71333 23.162 8.78C23.1487 8.94 23.0954 9.18667 23.002 9.52V9.54C22.8954 9.86 22.8354 10.2467 22.822 10.7C22.822 10.8733 22.822 11.0267 22.822 11.16C22.822 11.28 22.8287 11.38 22.842 11.46C22.8687 11.5267 22.902 11.5933 22.942 11.66C22.982 11.7267 23.0287 11.7933 23.082 11.86C23.1087 11.8733 23.1287 11.9 23.142 11.94C23.1554 11.98 23.162 12.0267 23.162 12.08C23.1754 12.12 23.182 12.1667 23.182 12.22C23.182 12.3 23.1887 12.3667 23.202 12.42C23.2287 12.46 23.2554 12.5 23.282 12.54C23.3087 12.5667 23.3554 12.5933 23.422 12.62C23.502 12.6467 23.5954 12.68 23.702 12.72C24.4087 12.92 25.0354 12.7733 25.582 12.28C25.8087 12.0933 26.0087 11.9267 26.182 11.78ZM34.0588 8.12C34.2054 7.92 34.4188 7.64667 34.6988 7.3C34.9921 6.95333 35.3521 6.7 35.7788 6.54C36.2188 6.38 36.6254 6.34667 36.9987 6.44C37.2121 6.50667 37.4854 6.71333 37.8188 7.06C38.1521 7.39333 38.3788 7.7 38.4988 7.98C38.5921 8.18 38.6921 8.46 38.7988 8.82C38.9188 9.16667 39.0254 9.53333 39.1188 9.92C39.2254 10.3067 39.3054 10.6467 39.3588 10.94C39.3721 11.02 39.3988 11.1733 39.4388 11.4C39.4921 11.6267 39.5254 11.78 39.5388 11.86C39.5921 12.14 39.6454 12.44 39.6988 12.76L39.7988 13.26C39.8254 13.2733 39.8254 13.3 39.7988 13.34C39.7854 13.3933 39.7588 13.4667 39.7188 13.56C39.6388 13.72 39.5721 13.8267 39.5188 13.88C39.3988 13.9467 39.2854 13.9667 39.1788 13.94C39.0721 13.9133 38.9654 13.84 38.8588 13.72C38.7521 13.5733 38.6988 13.3333 38.6988 13C38.6988 12.3333 38.6188 11.6867 38.4588 11.06C38.4321 10.9667 38.3654 10.6867 38.2588 10.22C38.1521 9.80667 38.0121 9.36 37.8388 8.88C37.7454 8.64 37.6588 8.44 37.5788 8.28C37.5121 8.10667 37.4454 7.98 37.3788 7.9C37.1388 7.54 36.7721 7.33333 36.2788 7.28L35.8988 7.26L35.2788 7.9C34.8788 8.32667 34.6188 8.65333 34.4988 8.88C34.3921 9.10667 34.3054 9.26 34.2388 9.34C34.1188 9.48667 33.9188 9.85333 33.6388 10.44C33.3721 11.0267 33.2188 11.4067 33.1788 11.58C33.1254 11.8333 33.0854 12.1933 33.0588 12.66C33.0454 12.8333 33.0254 12.9733 32.9988 13.08C32.9854 13.2 32.9654 13.2867 32.9388 13.34C32.8988 13.4733 32.7988 13.5667 32.6388 13.62C32.3988 13.7 32.2254 13.6067 32.1188 13.34C32.1054 13.2733 32.0854 13.08 32.0588 12.76C32.0454 12.44 32.0321 11.9867 32.0188 11.4C32.0188 10.8133 32.0188 10.0933 32.0188 9.24C32.0188 7.97333 32.0254 7.01333 32.0388 6.36C32.0521 5.69333 32.0721 5.34667 32.0988 5.32C32.1921 5.22667 32.2588 5.19333 32.2988 5.22C32.3521 5.23333 32.4521 5.32 32.5988 5.48C32.8654 5.82667 32.9854 6.14667 32.9588 6.44C32.9321 6.72 32.9121 7.30667 32.8988 8.2C32.8854 9.09333 32.8921 9.58 32.9188 9.66C32.9321 9.72667 32.9521 9.76667 32.9788 9.78C32.9921 9.79333 33.0121 9.79333 33.0387 9.78C33.0788 9.75333 33.1121 9.72 33.1388 9.68C33.1788 9.62667 33.2254 9.56 33.2788 9.48L33.4988 9.08L34.0588 8.12ZM41.0972 1.2C41.0972 1.18667 41.1039 1.16667 41.1172 1.14C41.1439 1.11333 41.1772 1.08667 41.2172 1.06C41.3505 0.953333 41.4772 0.913333 41.5972 0.939999C41.8505 1.02 41.9239 1.48 41.8172 2.32C41.5772 4.44 41.4439 6.72667 41.4172 9.18V9.8C41.4172 9.88 41.4172 9.95333 41.4172 10.02C41.4305 10.0733 41.4372 10.12 41.4372 10.16C41.4505 10.2267 41.4639 10.28 41.4772 10.32C41.4905 10.3333 41.4972 10.3467 41.4972 10.36C41.5105 10.36 41.5239 10.36 41.5372 10.36C41.6172 10.32 42.2239 9.74 43.3572 8.62C44.5039 7.48667 45.0772 6.89333 45.0772 6.84C45.0772 6.82667 45.0839 6.81333 45.0972 6.8C45.1105 6.77333 45.1305 6.74667 45.1572 6.72C45.1972 6.68 45.2372 6.64 45.2772 6.6C45.3172 6.54667 45.3639 6.49333 45.4172 6.44C45.4705 6.37333 45.5305 6.30667 45.5972 6.24C45.6772 6.17333 45.7572 6.1 45.8372 6.02C46.3572 5.52667 46.6505 5.28 46.7172 5.28C46.7839 5.28 46.8505 5.31333 46.9172 5.38C46.9839 5.43333 47.0439 5.51333 47.0972 5.62C47.2039 5.78 47.2639 5.92 47.2772 6.04C47.3039 6.14667 47.2772 6.23333 47.1972 6.3C47.1172 6.36667 47.0505 6.38 46.9972 6.34C46.9439 6.28667 46.9172 6.2 46.9172 6.08C46.9172 5.94667 46.8705 5.87333 46.7772 5.86C46.6839 5.83333 46.5639 5.87333 46.4172 5.98C46.2705 6.1 46.1905 6.16 46.1772 6.16C46.1639 6.17333 46.1972 6.25333 46.2772 6.4C46.4639 6.66667 46.3839 6.9 46.0372 7.1C45.9839 7.12667 45.9305 7.16667 45.8772 7.22C45.8239 7.26 45.7639 7.31333 45.6972 7.38C45.6439 7.43333 45.5905 7.49333 45.5372 7.56C45.3772 7.77333 44.8839 8.3 44.0572 9.14C43.2305 9.99333 42.8172 10.4533 42.8172 10.52C42.8172 10.5333 42.8305 10.5533 42.8572 10.58C42.8839 10.5933 42.9172 10.62 42.9572 10.66C43.0105 10.6867 43.0705 10.72 43.1372 10.76C43.2172 10.7867 43.3039 10.82 43.3972 10.86C44.2239 11.26 44.9639 11.6 45.6172 11.88C46.3239 12.1867 46.8305 12.4267 47.1372 12.6C47.3505 12.72 47.5572 12.78 47.7572 12.78C47.8905 12.78 47.9972 12.8067 48.0772 12.86C48.1705 12.9 48.2239 12.9667 48.2372 13.06C48.2505 13.0867 48.2572 13.1133 48.2572 13.14C48.2572 13.18 48.2505 13.22 48.2372 13.26C48.2372 13.3 48.2305 13.34 48.2172 13.38C48.1772 13.5 48.1372 13.62 48.0972 13.74C48.0972 13.7533 48.0839 13.7667 48.0572 13.78C48.0439 13.8067 48.0172 13.8333 47.9772 13.86C47.9372 13.8867 47.8905 13.9067 47.8372 13.92C47.7972 13.9333 47.7639 13.94 47.7372 13.94C47.7105 13.9533 47.6839 13.96 47.6572 13.96C47.6305 13.96 47.6039 13.9533 47.5772 13.94C47.5505 13.94 47.5239 13.9333 47.4972 13.92C47.3905 13.8933 47.1905 13.8133 46.8972 13.68C46.4705 13.4667 46.1572 13.2867 45.9572 13.14C45.9039 13.1 45.8372 13.06 45.7572 13.02C45.6772 12.98 45.5839 12.9333 45.4772 12.88C45.3839 12.8267 45.2772 12.7667 45.1572 12.7C44.8105 12.5267 44.6039 12.44 44.5372 12.44C44.4705 12.44 44.3039 12.3933 44.0372 12.3C43.7839 12.1933 43.5105 12.08 43.2172 11.96C42.9239 11.8267 42.7039 11.7267 42.5572 11.66C42.4239 11.58 42.3239 11.5133 42.2572 11.46C42.1905 11.3933 42.1572 11.3267 42.1572 11.26C42.1572 11.1667 42.1372 11.12 42.0972 11.12C42.0305 11.1333 41.9772 11.1667 41.9372 11.22C41.8705 11.3 41.7639 11.3267 41.6172 11.3C41.4839 11.26 41.3905 11.28 41.3372 11.36C41.2972 11.44 41.3039 11.5267 41.3572 11.62C41.4105 11.74 41.4039 11.8667 41.3372 12C41.2839 12.1333 41.3105 12.3 41.4172 12.5C41.5239 12.6733 41.5639 12.8267 41.5372 12.96C41.5239 13.0267 41.4972 13.1 41.4572 13.18C41.4172 13.26 41.3639 13.34 41.2972 13.42C41.0705 13.7 40.8439 13.7333 40.6172 13.52C40.5639 13.48 40.5239 13.42 40.4972 13.34C40.4705 13.2733 40.4505 13.18 40.4372 13.06C40.4239 12.8467 40.4172 12.1533 40.4172 10.98C40.4172 10.7133 40.4172 10.4733 40.4172 10.26C40.4172 10.0333 40.4172 9.82667 40.4172 9.64C40.4305 9.45333 40.4372 9.29333 40.4372 9.16C40.4505 9.01333 40.4572 8.89333 40.4572 8.8C40.4705 8.69333 40.4772 8.60667 40.4772 8.54C40.4905 8.47333 40.5039 8.43333 40.5172 8.42C40.5439 8.36667 40.5705 8.16 40.5972 7.8C40.6239 7.42667 40.6505 6.90667 40.6772 6.24C40.7305 4.65333 40.7772 3.62667 40.8172 3.16C40.8705 2.68 40.9639 2.31333 41.0972 2.06C41.1905 1.84667 41.2439 1.70667 41.2572 1.64C41.2839 1.57333 41.2572 1.49333 41.1772 1.4C41.1105 1.30667 41.0839 1.24 41.0972 1.2ZM49.5347 5.86C49.6014 5.78 49.688 5.66 49.7947 5.5C49.848 5.43333 49.9214 5.36667 50.0147 5.3C50.108 5.22 50.228 5.15333 50.3747 5.1C50.5214 5.03333 50.6614 4.98667 50.7947 4.96C50.928 4.92 51.0547 4.9 51.1747 4.9C51.4014 4.9 51.5547 4.87333 51.6347 4.82C51.728 4.75333 51.9014 4.72667 52.1547 4.74C52.4214 4.75333 52.6414 4.8 52.8147 4.88C52.908 4.93333 53.0014 5 53.0947 5.08C53.188 5.16 53.2814 5.25333 53.3747 5.36C53.4814 5.46667 53.5614 5.56667 53.6147 5.66C53.668 5.74 53.6947 5.81333 53.6947 5.88C53.6814 5.93333 53.6614 5.99333 53.6347 6.06C53.6214 6.12667 53.5947 6.20667 53.5547 6.3C53.4747 6.44667 53.308 6.66 53.0547 6.94C52.8014 7.20667 52.6414 7.34 52.5747 7.34C52.508 7.34 52.4747 7.29333 52.4747 7.2C52.4747 7.14667 52.4747 7.1 52.4747 7.06C52.488 7.00667 52.508 6.94667 52.5347 6.88C52.5614 6.77333 52.608 6.67333 52.6747 6.58C52.888 6.27333 52.908 6.05333 52.7347 5.92C52.5614 5.78667 52.188 5.71333 51.6147 5.7C51.0547 5.7 50.7014 5.74 50.5547 5.82C50.4214 5.9 50.288 6.15333 50.1547 6.58C50.0347 6.94 49.988 7.17333 50.0147 7.28C50.0414 7.38667 50.208 7.66 50.5147 8.1C50.7547 8.46 50.9947 8.72667 51.2347 8.9C51.3814 8.99333 51.628 9.15333 51.9747 9.38C52.068 9.44667 52.1547 9.50667 52.2347 9.56C52.3147 9.6 52.388 9.64667 52.4547 9.7C52.5347 9.75333 52.6147 9.8 52.6947 9.84C52.8014 9.89333 52.9147 9.97333 53.0347 10.08C53.1547 10.1733 53.288 10.2867 53.4347 10.42C53.5814 10.5533 53.6947 10.6733 53.7747 10.78C53.868 10.8733 53.9347 10.9533 53.9747 11.02C54.0947 11.2333 54.188 11.5333 54.2547 11.92C54.3214 12.2933 54.3214 12.5733 54.2547 12.76C54.2414 12.84 54.2014 12.92 54.1347 13C54.068 13.0933 53.9747 13.1933 53.8547 13.3C53.6147 13.5133 53.3747 13.6733 53.1347 13.78C53.0547 13.82 52.9747 13.8533 52.8947 13.88C52.828 13.9067 52.7614 13.9267 52.6947 13.94C52.5614 13.9533 52.3347 13.9533 52.0147 13.94C51.7747 13.9267 51.5614 13.9067 51.3747 13.88C51.188 13.8533 51.0347 13.8267 50.9147 13.8C50.848 13.7867 50.7614 13.7667 50.6547 13.74C50.548 13.7267 50.4147 13.7 50.2547 13.66C50.0547 13.62 49.8214 13.5267 49.5547 13.38C49.288 13.2333 49.108 13.0933 49.0147 12.96C48.7747 12.68 48.8014 12.42 49.0947 12.18C49.188 12.1133 49.268 12.06 49.3347 12.02C49.5347 11.9533 49.6747 12.0333 49.7547 12.26C49.9014 12.58 50.168 12.8 50.5547 12.92C50.6347 12.9333 50.748 12.96 50.8947 13L51.1347 13.08C51.5347 13.1867 52.008 13.1667 52.5547 13.02C52.648 12.9933 52.7347 12.96 52.8147 12.92C52.8947 12.88 52.968 12.84 53.0347 12.8C53.1147 12.76 53.1814 12.7133 53.2347 12.66C53.4214 12.5 53.4947 12.3533 53.4547 12.22C53.428 12.14 53.3947 12.02 53.3547 11.86C53.3414 11.8067 53.3214 11.7533 53.2947 11.7C53.2814 11.6467 53.2547 11.5933 53.2147 11.54C53.1747 11.4733 53.1347 11.4067 53.0947 11.34C53.0547 11.2867 53.0147 11.24 52.9747 11.2C52.9347 11.16 52.8947 11.12 52.8547 11.08C52.828 11.04 52.7947 11.0067 52.7547 10.98C52.7147 10.9533 52.6814 10.9267 52.6547 10.9C52.2014 10.6067 51.8214 10.3333 51.5147 10.08C51.2614 9.88 51.0214 9.72 50.7947 9.6C50.4747 9.41333 50.228 9.21333 50.0547 9C49.988 8.92 49.9147 8.82667 49.8347 8.72C49.768 8.61333 49.688 8.48667 49.5947 8.34C49.5147 8.19333 49.428 8.02667 49.3347 7.84C49.2014 7.6 49.1214 7.40667 49.0947 7.26C49.068 7.1 49.088 6.91333 49.1547 6.7C49.2214 6.47333 49.288 6.29333 49.3547 6.16C49.4214 6.01333 49.4814 5.91333 49.5347 5.86ZM20.6229 25.68C20.7029 25.6533 20.9629 25.6467 21.4029 25.66C21.5229 25.66 21.6296 25.6667 21.7229 25.68C21.8296 25.68 21.9296 25.6867 22.0229 25.7C22.1162 25.7 22.2029 25.7067 22.2829 25.72C22.3762 25.7333 22.4562 25.7467 22.5229 25.76C22.8429 25.8133 23.0962 25.94 23.2829 26.14C23.4029 26.2733 23.4762 26.3867 23.5029 26.48C23.5162 26.52 23.5162 26.56 23.5029 26.6C23.5029 26.6267 23.4829 26.6533 23.4429 26.68C23.4162 26.7067 23.3762 26.7267 23.3229 26.74C23.2696 26.7533 23.1962 26.74 23.1029 26.7C23.0096 26.66 22.9096 26.5867 22.8029 26.48C22.5629 26.2533 22.3696 26.1667 22.2229 26.22C21.7829 26.3667 21.2829 26.4467 20.7229 26.46C20.5629 26.4733 20.3429 26.5333 20.0629 26.64C19.7829 26.7467 19.4296 26.9067 19.0029 27.12C18.9096 27.16 18.8162 27.2067 18.7229 27.26C18.6429 27.3 18.5629 27.34 18.4829 27.38C18.4029 27.42 18.3229 27.46 18.2429 27.5C18.1762 27.54 18.1096 27.58 18.0429 27.62C17.9762 27.66 17.9096 27.7 17.8429 27.74C17.7896 27.78 17.7362 27.82 17.6829 27.86C17.6429 27.8867 17.5962 27.92 17.5429 27.96C17.5029 27.9867 17.4629 28.02 17.4229 28.06C17.3829 28.0867 17.3496 28.1133 17.3229 28.14C17.2029 28.26 17.0696 28.4067 16.9229 28.58C16.7762 28.7533 16.6562 28.9133 16.5629 29.06C16.4696 29.2067 16.4229 29.3 16.4229 29.34C16.4229 29.3933 16.3829 29.46 16.3029 29.54C16.1296 29.7267 15.9962 30.0067 15.9029 30.38C15.8229 30.7533 15.7829 31.2267 15.7829 31.8C15.7829 31.96 15.7829 32.1067 15.7829 32.24C15.7962 32.3733 15.8096 32.5 15.8229 32.62C15.8362 32.7267 15.8496 32.8267 15.8629 32.92C15.8762 33.0133 15.8962 33.1 15.9229 33.18C16.0029 33.4867 16.2029 33.8733 16.5229 34.34C16.6696 34.6067 16.7829 34.78 16.8629 34.86C16.8896 34.9133 16.9229 34.96 16.9629 35C17.0029 35.04 17.0429 35.0733 17.0829 35.1C17.1496 35.1667 17.2762 35.26 17.4629 35.38C18.1429 35.8067 18.8229 35.9933 19.5029 35.94C19.8096 35.9267 20.0829 35.9133 20.3229 35.9C20.5762 35.8733 20.7962 35.8467 20.9829 35.82C21.1696 35.7933 21.3229 35.7667 21.4429 35.74C21.5762 35.7133 21.6696 35.68 21.7229 35.64C21.8429 35.5733 21.9696 35.54 22.1029 35.54C22.1562 35.54 22.2496 35.5133 22.3829 35.46C22.5296 35.4067 22.7229 35.3267 22.9629 35.22C23.1896 35.1267 23.3696 35.0533 23.5029 35C23.6496 34.9467 23.7496 34.92 23.8029 34.92C23.8562 34.92 23.9029 34.9133 23.9429 34.9C23.9962 34.8867 24.0429 34.8733 24.0829 34.86C24.1362 34.8333 24.1829 34.8067 24.2229 34.78C24.3562 34.7133 24.5162 34.6733 24.7029 34.66C24.7962 34.66 24.8762 34.6667 24.9429 34.68C25.0096 34.6933 25.0562 34.72 25.0829 34.76C25.1229 34.8 25.1496 34.84 25.1629 34.88C25.1896 34.9067 25.2029 34.9467 25.2029 35C25.2029 35.04 25.1896 35.08 25.1629 35.12C25.1496 35.16 25.1229 35.2067 25.0829 35.26C25.0162 35.3667 24.9229 35.4533 24.8029 35.52C24.6829 35.5867 24.5429 35.64 24.3829 35.68C24.3029 35.6933 24.2029 35.72 24.0829 35.76C23.9762 35.7867 23.8562 35.8333 23.7229 35.9C23.6029 35.9533 23.4696 36.0133 23.3229 36.08C22.9096 36.28 22.6429 36.38 22.5229 36.38C22.4696 36.38 22.4096 36.3867 22.3429 36.4C22.2896 36.4133 22.2296 36.44 22.1629 36.48C22.0962 36.52 21.9362 36.5667 21.6829 36.62C21.4296 36.6867 21.0962 36.7667 20.6829 36.86C20.5762 36.8867 20.4562 36.9067 20.3229 36.92C20.1896 36.9333 20.0362 36.94 19.8629 36.94C19.7029 36.9533 19.5229 36.96 19.3229 36.96C19.2562 36.96 19.1896 36.9533 19.1229 36.94C19.0696 36.94 19.0096 36.94 18.9429 36.94C18.8896 36.94 18.8362 36.94 18.7829 36.94C18.7296 36.94 18.6762 36.9333 18.6229 36.92C18.5829 36.92 18.5362 36.92 18.4829 36.92C18.4429 36.92 18.4029 36.9133 18.3629 36.9C18.3362 36.9 18.3029 36.8933 18.2629 36.88C18.2229 36.88 18.1896 36.88 18.1629 36.88C18.1362 36.88 18.1096 36.8733 18.0829 36.86C17.8296 36.7933 17.5896 36.7067 17.3629 36.6C17.1362 36.5067 16.9229 36.3867 16.7229 36.24C16.3229 35.9733 16.0429 35.6667 15.8829 35.32C15.7762 35.12 15.6962 35.0067 15.6429 34.98C15.5896 34.94 15.4629 34.7133 15.2629 34.3C15.0762 33.8867 14.9629 33.5933 14.9229 33.42C14.8562 33.2067 14.8162 32.6933 14.8029 31.88L14.7629 30.68L15.2429 29.64C15.4829 29.1333 15.6696 28.7733 15.8029 28.56C15.8696 28.44 15.9562 28.3133 16.0629 28.18C16.1696 28.0467 16.2962 27.9 16.4429 27.74C16.5896 27.58 16.9096 27.3267 17.4029 26.98C17.8829 26.6467 18.2029 26.4533 18.3629 26.4C18.4296 26.3867 18.5429 26.3533 18.7029 26.3C18.8629 26.2467 19.0629 26.1667 19.3029 26.06C19.7562 25.8733 20.0696 25.7733 20.2429 25.76C20.3229 25.76 20.3896 25.7533 20.4429 25.74C20.5096 25.7267 20.5696 25.7067 20.6229 25.68ZM25.998 24.02L26.298 23.82C26.4847 23.6467 26.6047 23.56 26.658 23.56C26.7247 23.56 26.8247 23.6267 26.958 23.76C27.1047 23.88 27.198 23.9867 27.238 24.08C27.318 24.2533 27.3714 24.8 27.398 25.72C27.398 26.0267 27.398 26.3333 27.398 26.64C27.4114 26.9467 27.4114 27.2533 27.398 27.56C27.398 27.8533 27.398 28.1467 27.398 28.44C27.3714 29.12 27.3914 29.54 27.458 29.7C27.4847 29.8067 27.5114 29.9733 27.538 30.2C27.5647 30.4133 27.5914 30.6933 27.618 31.04C27.658 31.76 27.7047 32.36 27.758 32.84C27.8647 33.68 27.878 34.7 27.798 35.9C27.7447 36.6067 27.558 36.96 27.238 36.96C27.0514 36.96 26.9247 36.8867 26.858 36.74C26.7914 36.5933 26.7714 36.36 26.798 36.04C26.8914 34.9733 26.8714 33.84 26.738 32.64C26.5914 31.4267 26.4847 29.94 26.418 28.18C26.3514 26.4067 26.358 25.3667 26.438 25.06C26.4914 24.9 26.498 24.7667 26.458 24.66C26.4314 24.54 26.338 24.4 26.178 24.24L26.018 24.04L25.998 24.02ZM29.2496 23.32L29.5096 23.2C29.5363 23.1733 29.5629 23.1533 29.5896 23.14C29.6163 23.1267 29.6429 23.1133 29.6696 23.1C29.6963 23.0867 29.7229 23.08 29.7496 23.08C29.7896 23.0667 29.8229 23.06 29.8496 23.06C29.8896 23.0467 29.9229 23.04 29.9496 23.04C29.9896 23.04 30.0229 23.04 30.0496 23.04C30.0896 23.04 30.1229 23.04 30.1496 23.04C30.1896 23.04 30.2229 23.0467 30.2496 23.06C30.2763 23.06 30.2963 23.0667 30.3096 23.08C30.3629 23.1067 30.4163 23.1733 30.4696 23.28C30.5496 23.4533 30.6563 23.62 30.7896 23.78C30.9096 23.94 30.9696 24.0733 30.9696 24.18C30.9696 24.2333 30.9563 24.3067 30.9296 24.4C30.9029 24.4933 30.8696 24.6067 30.8296 24.74C30.6963 25.0867 30.5629 25.3067 30.4296 25.4C30.2829 25.4933 30.0896 25.4933 29.8496 25.4C29.4363 25.24 29.2296 24.78 29.2296 24.02V23.36V23.34L29.2496 23.32ZM30.2096 24.1C30.1696 24.06 30.1363 24.0333 30.1096 24.02C30.0563 24.02 30.0229 24.0267 30.0096 24.04V24.08V24.1C30.0229 24.1667 30.0563 24.2 30.1096 24.2C30.1229 24.2 30.1363 24.1933 30.1496 24.18C30.1763 24.1533 30.1963 24.1267 30.2096 24.1ZM30.2096 28.46C30.1963 28.5133 30.1296 28.5867 30.0096 28.68L29.8296 28.84L29.8896 30.82C29.9163 32.1667 29.9163 33.4733 29.8896 34.74C29.8629 35.62 29.8363 36.16 29.8096 36.36C29.7963 36.48 29.7763 36.5733 29.7496 36.64C29.7363 36.7067 29.7029 36.76 29.6496 36.8C29.5963 36.8533 29.5363 36.8933 29.4696 36.92C29.4029 36.9467 29.3363 36.96 29.2696 36.96C29.2163 36.96 29.1696 36.9533 29.1296 36.94C29.0896 36.9267 29.0496 36.9067 29.0096 36.88C28.9829 36.8533 28.9563 36.8267 28.9296 36.8C28.8096 36.6667 28.8296 35.7933 28.9896 34.18C29.0163 33.8067 29.0296 32.7333 29.0296 30.96C29.0029 29.2133 29.0229 28.3 29.0896 28.22C29.1563 28.1267 29.3163 28.08 29.5696 28.08C29.7029 28.08 29.8096 28.0933 29.8896 28.12C29.9696 28.1467 30.0363 28.1867 30.0896 28.24L30.2096 28.46ZM32.3746 28.62C32.4013 28.5933 32.4346 28.58 32.4746 28.58C32.5146 28.58 32.5613 28.5867 32.6146 28.6C32.6546 28.6267 32.6879 28.6533 32.7146 28.68C32.7546 28.6933 32.7813 28.7133 32.7946 28.74C32.8213 28.7667 32.8346 28.7933 32.8346 28.82C32.8479 28.8467 32.8546 28.88 32.8546 28.92C32.8546 29.0267 32.9279 29.1467 33.0746 29.28C33.2213 29.4133 33.2946 29.5467 33.2946 29.68C33.2946 29.7067 33.2946 29.7333 33.2946 29.76C33.3079 29.7867 33.3213 29.8133 33.3346 29.84C33.3746 29.92 33.4413 29.96 33.5346 29.96C33.6413 29.9467 33.7813 29.9 33.9546 29.82C34.0879 29.7533 34.2213 29.7 34.3546 29.66C34.5013 29.6067 34.6479 29.56 34.7946 29.52C34.9413 29.48 35.0879 29.44 35.2346 29.4C35.3813 29.3467 35.5213 29.2933 35.6546 29.24C36.2413 29.0267 36.8346 28.9 37.4346 28.86C37.7946 28.8467 38.0479 28.8533 38.1946 28.88C38.3546 28.9067 38.5679 28.9667 38.8346 29.06C39.1146 29.18 39.3413 29.3067 39.5146 29.44C39.6879 29.56 39.8146 29.6933 39.8946 29.84C40.0679 30.12 40.1746 30.6867 40.2146 31.54C40.2546 32.3 40.1679 32.82 39.9546 33.1C39.8746 33.1933 39.7946 33.3733 39.7146 33.64C39.6213 33.9067 39.5079 34.1467 39.3746 34.36C39.2546 34.5733 39.1213 34.76 38.9746 34.92C38.4946 35.36 38.1679 35.64 37.9946 35.76C37.8346 35.88 37.6079 35.9733 37.3146 36.04C36.9413 36.1333 36.6946 36.1733 36.5746 36.16C36.1879 36.1467 35.7679 36.1667 35.3146 36.22C35.1279 36.2467 34.9346 36.2467 34.7346 36.22C34.5479 36.2067 34.3546 36.1733 34.1546 36.12C33.6746 36.0133 33.3879 35.9933 33.2946 36.06C33.2546 36.0867 33.2213 36.1333 33.1946 36.2C33.1679 36.28 33.1413 36.38 33.1146 36.5C33.1013 36.6333 33.0813 36.7867 33.0546 36.96C32.9746 37.5333 32.9146 38.3267 32.8746 39.34C32.8479 40.2867 32.8079 40.8133 32.7546 40.92H32.7346C32.6546 41.1067 32.5146 41.1933 32.3146 41.18C32.1279 41.18 31.9813 41.0867 31.8746 40.9C31.7946 40.7 31.7613 40.2533 31.7746 39.56C31.8013 38.88 31.8813 38.18 32.0146 37.46C32.0946 37.1533 32.1479 36.72 32.1746 36.16C32.2013 35.6533 32.1546 35.3 32.0346 35.1C31.8079 34.74 31.8079 34.4133 32.0346 34.12C32.1413 34 32.2013 33.82 32.2146 33.58C32.2279 33.34 32.2413 32.5933 32.2546 31.34C32.2546 29.66 32.2746 28.78 32.3146 28.7C32.3279 28.66 32.3479 28.6333 32.3746 28.62ZM38.0546 29.78C37.9613 29.7667 37.8546 29.76 37.7346 29.76C37.6146 29.76 37.4813 29.7533 37.3346 29.74C36.9479 29.7267 36.6879 29.7333 36.5546 29.76C36.4213 29.7733 36.2613 29.8267 36.0746 29.92C35.9546 30 35.8413 30.06 35.7346 30.1C35.6413 30.1267 35.5546 30.14 35.4746 30.14C35.4079 30.14 35.3146 30.16 35.1946 30.2C35.0879 30.24 34.9546 30.3 34.7946 30.38C34.6479 30.46 34.4746 30.5533 34.2746 30.66C34.2079 30.6867 34.0279 30.7733 33.7346 30.92L33.3146 31.1L33.2946 31.12V32.16C33.2946 32.8533 33.2613 33.2733 33.1946 33.42C33.1279 33.5667 33.1146 33.72 33.1546 33.88C33.1679 33.92 33.1813 33.9533 33.1946 33.98C33.2079 34.0067 33.2213 34.0333 33.2346 34.06C33.2613 34.0733 33.2813 34.0867 33.2946 34.1C33.3213 34.1 33.3479 34.1 33.3746 34.1C33.4813 34.1 33.5613 34.1133 33.6146 34.14C33.6813 34.1533 33.7279 34.18 33.7546 34.22C33.7946 34.26 33.8146 34.3067 33.8146 34.36C33.8146 34.4 33.7879 34.4333 33.7346 34.46C33.6946 34.4867 33.6279 34.5 33.5346 34.5C33.3346 34.5133 33.2279 34.5733 33.2146 34.68C33.2146 34.8 33.3613 34.9133 33.6546 35.02C33.8946 35.1267 34.1079 35.2133 34.2946 35.28C34.4946 35.3333 34.6679 35.3667 34.8146 35.38C35.1079 35.3933 35.6746 35.36 36.5146 35.28C36.7946 35.24 37.0146 35.2 37.1746 35.16C37.3346 35.12 37.4413 35.0733 37.4946 35.02C37.5746 34.9667 37.6946 34.8867 37.8546 34.78C37.9213 34.7267 38.0079 34.6333 38.1146 34.5C38.2346 34.3533 38.3679 34.1667 38.5146 33.94C38.8213 33.4867 39.0013 33.1467 39.0546 32.92C39.0946 32.7867 39.1346 32.66 39.1746 32.54C39.2146 32.42 39.2546 32.3133 39.2946 32.22C39.4546 31.7133 39.4546 31.2133 39.2946 30.72C39.2146 30.4667 39.1079 30.2667 38.9746 30.12C38.8413 29.9733 38.6813 29.88 38.4946 29.84C38.4413 29.8267 38.3746 29.8133 38.2946 29.8C38.2279 29.7867 38.1479 29.78 38.0546 29.78Z" fill="#F87171"/>
</svg>
