<?xml version="1.0" encoding="utf-8"?>
<!-- Generator: Adobe Illustrator 24.0.3, SVG Export Plug-In . SVG Version: 6.00 Build 0)  -->
<svg version="1.1" id="Layer_1" xmlns="http://www.w3.org/2000/svg" width="current" height="current" stroke-width="1" xmlns:xlink="http://www.w3.org/1999/xlink" x="0px" y="0px"
	 viewBox="0 0 566.9 566.9" style="enable-background:new 0 0 566.9 566.9;" xml:space="preserve">
<style type="text/css">
	.st0{fill:none;stroke:#EA6E6D;stroke-width:10;stroke-linecap:round;stroke-miterlimit:10; stroke-dasharray: 500;
  stroke-dashoffset: 0;
  animation: ani 5s ease;}
	.st1{fill:none;stroke:#EA6E6D;stroke-width:10;stroke-linecap:round;stroke-linejoin:round;stroke-miterlimit:10; stroke-dasharray: 500;
  stroke-dashoffset: 0;
  animation: ani 5s ease;}
	@keyframes ani {
  0% {
    stroke-dashoffset: 500; 
  }
  100% {
    stroke-dashoffset: 0;  
  }
}
</style>
<path class="st0" d="M117,179c0,0,38.5,5.5,75.5,2.5s38-5,39-9s-13.3-12.6-28.5-0.5c-15,12-26,31-26,84"/>
<path class="st1" d="M216,193c0,0-7,8-12,34c-5,25.8-3,29-3,29s6-21,16-26s17,2,18,8s-1,19-1,19"/>
<path class="st1" d="M235,215c0,0,12-7,26-7s20,7,18,21s-11,28-22,24s-4-20,3-25s21-12,25,2s1,28,1,28"/>
<path class="st1" d="M301,205c0,0,4,12,4,26s-1,25-1,25s1-23,8-35s13-13,17-13s11,4,13,17s0,31,0,31"/>
<path class="st1" d="M360,178c0,0,3,24,3,43c0,21-2,35-2,35s1-9,3-22c0.9-5.6,3-13,7-18c7.8-9.8,18-9,23-6s7,11,3,17s-19,8-19,8
	s15,26,35,39"/>
<path class="st1" d="M447,216c0,0-9-13-24-8c-14.4,4.8-6.9,20,2,21c9,1,26-2,25,12c-1.1,15-28,15-42,0"/>
<path class="st1" d="M264,306c0,0,4-20-8-26s-25.2-2.6-34,16c-9,19-7,39-3,50c3.4,9.3,11,20,25,20s25-6,25-6"/>
<path class="st1" d="M255,344c0,0,23-4,38-20s12-32,12-35s-1-10-6-11s-19,9-17,46s18,42,29,42"/>
<path class="st1" d="M321,280c0,0,3,9,4,19"/>
<path class="st1" d="M326,314c0,0,5,34,2,52"/>
<path class="st1" d="M346,315c0,0,3,26,3,38s-2,28-3,35c-0.5,3.8,2-18,4.6-37.9c2.3-17.3,9.3-32.1,21.4-32.1c19,0,22,24,16,33
	c-6,9-12,9-25,7"/>
</svg>
